<?xml version="1.0" encoding="UTF-8"?>
<svg xmlns="http://www.w3.org/2000/svg" version="1.1" viewBox="0 0 1080 1920">
  <defs>
    <style>
      .cls-1 {
        fill: #3251b1;
      }

      .cls-2 {
        fill: #7c61e7;
      }

      .cls-3 {
        fill: #001220;
      }

      .cls-4 {
        fill: #a566ff;
      }

      .cls-5 {
        fill: #003a75;
      }

      .cls-6 {
        fill: #00203b;
      }
    </style>
  </defs>
  <!-- Generator: Adobe Illustrator 28.6.0, SVG Export Plug-In . SVG Version: 1.2.0 Build 709)  -->
  <g>
    <g id="visual">
      <rect class="cls-3" width="1080" height="1920"/>
      <g>
        <path class="cls-6" d="M351,0c-10,34.5-20,69-29,104.6-9.2,35.6-17.5,72.3-38,101.7-20.6,29.4-53.4,51.5-86.2,65.9-32.8,14.4-65.7,21.2-98.6,33C66.2,317.1,33.1,334,0,351V0h351Z"/>
        <path class="cls-5" d="M280.8,0c-8,27.6-15.9,55.2-23.2,83.7-7.3,28.5-13.9,57.9-30.4,81.4-16.4,23.5-42.6,41.2-68.9,52.7-26.2,11.6-52.5,16.9-78.9,26.4C53,253.7,26.5,267.2,0,280.8V0h280.8Z"/>
        <path class="cls-1" d="M210.6,0c-6,20.7-12,41.4-17.5,62.7-5.4,21.3-10.4,43.4-22.7,61.1-12.3,17.6-32,30.9-51.7,39.6-19.7,8.6-39.3,12.7-59.2,19.8C39.7,190.3,19.9,200.4,0,210.6V0h210.6Z"/>
        <path class="cls-2" d="M140.4,0c-4,13.8-8,27.6-11.6,41.8-3.7,14.2-6.9,28.9-15.2,40.7-8.2,11.7-21.3,20.5-34.5,26.3-13.1,5.7-26.2,8.5-39.4,13.2C26.5,126.8,13.2,133.6,0,140.4V0h140.4Z"/>
        <path class="cls-4" d="M70.2,0c-2,6.9-4,13.8-5.8,20.9-1.9,7.1-3.5,14.5-7.6,20.4-4.1,5.9-10.7,10.3-17.2,13.2-6.5,2.9-13.1,4.2-19.7,6.6C13.2,63.4,6.6,66.8,0,70.2V0h70.2Z"/>
      </g>
      <g>
        <path class="cls-6" d="M729,1920c8.1-34.9,16.3-69.7,25.2-105.8,9-36,18.8-73.3,41.8-100.5,23-27.1,59.2-44.1,92.1-57.8,32.8-13.7,62.2-24.4,93.6-38.3,31.4-13.9,64.8-31.2,98.2-48.5v351h-351Z"/>
        <path class="cls-5" d="M799.2,1920c6.5-27.9,13-55.8,20.2-84.6,7.2-28.9,15-58.7,33.5-80.4,18.4-21.7,47.3-35.2,73.6-46.2,26.2-11.1,49.8-19.5,75-30.6,25.1-11.2,51.8-25,78.6-38.8v280.8h-280.8Z"/>
        <path class="cls-1" d="M869.4,1920c4.9-21,9.8-41.8,15.2-63.5,5.4-21.7,11.2-44,25.1-60.3,13.8-16.2,35.5-26.4,55.2-34.7,19.7-8.2,37.3-14.6,56.2-22.9,18.9-8.4,38.9-18.7,58.9-29.2v210.6h-210.6Z"/>
        <path class="cls-2" d="M939.6,1920c3.2-13.9,6.5-27.9,10.1-42.3,3.6-14.4,7.5-29.3,16.7-40.2,9.2-10.8,23.7-17.6,36.8-23.1,13.1-5.5,24.9-9.7,37.4-15.3,12.5-5.6,25.9-12.6,39.3-19.4v140.4h-140.4Z"/>
        <path class="cls-4" d="M1009.8,1920c1.6-7,3.2-13.9,5-21.1,1.8-7.2,3.7-14.7,8.4-20.1,4.6-5.5,11.8-8.8,18.4-11.6,6.6-2.7,12.5-4.9,18.8-7.7,6.3-2.8,12.9-6.2,19.6-9.7v70.2h-70.2Z"/>
      </g>
    </g>
  </g>
</svg>