<?xml version="1.0" encoding="UTF-8"?>
<svg xmlns="http://www.w3.org/2000/svg" version="1.1" viewBox="0 0 1080 1920">
  <defs>
    <style>
      .cls-1 {
        fill: #3251b1;
      }

      .cls-2 {
        fill: #7c61e7;
      }

      .cls-3 {
        fill: #001220;
      }

      .cls-4 {
        fill: #a566ff;
      }

      .cls-5 {
        fill: #003a75;
      }

      .cls-6 {
        fill: #00203b;
      }
    </style>
  </defs>
  <!-- Generator: Adobe Illustrator 28.6.0, SVG Export Plug-In . SVG Version: 1.2.0 Build 709)  -->
  <g>
    <g id="Layer_1">
      <g id="visual">
        <rect class="cls-3" width="1080" height="1920"/>
        <g>
          <path class="cls-6" d="M351,0c-10,34.5-20,69-29,104.6-9.2,35.6-17.5,72.3-38,101.7-20.6,29.4-53.4,51.5-86.2,65.9s-65.7,21.2-98.6,33c-33,11.9-66.1,28.8-99.2,45.8V0h351Z"/>
          <path class="cls-5" d="M280.8,0c-8,27.6-15.9,55.2-23.2,83.7-7.3,28.5-13.9,57.9-30.4,81.4-16.4,23.5-42.6,41.2-68.9,52.7-26.2,11.6-52.5,16.9-78.9,26.4-26.4,9.5-52.9,23-79.4,36.6V0h280.8Z"/>
          <path class="cls-1" d="M210.6,0c-6,20.7-12,41.4-17.5,62.7-5.4,21.3-10.4,43.4-22.7,61.1-12.3,17.6-32,30.9-51.7,39.6-19.7,8.6-39.3,12.7-59.2,19.8-19.8,7.1-39.6,17.2-59.5,27.4V0h210.6Z"/>
          <path class="cls-2" d="M140.4,0c-4,13.8-8,27.6-11.6,41.8-3.7,14.2-6.9,28.9-15.2,40.7-8.2,11.7-21.3,20.5-34.5,26.3-13.1,5.7-26.2,8.5-39.4,13.2-13.2,4.8-26.5,11.6-39.7,18.4V0h140.4Z"/>
          <path class="cls-4" d="M70.2,0c-2,6.9-4,13.8-5.8,20.9-1.9,7.1-3.5,14.5-7.6,20.4-4.1,5.9-10.7,10.3-17.2,13.2s-13.1,4.2-19.7,6.6c-6.7,2.3-13.3,5.7-19.9,9.1V0h70.2Z"/>
        </g>
        <g>
          <path class="cls-6" d="M0,1920v-539.9h1079.9v540s-1079.9-.1-1079.9-.1h0Z"/>
          <path class="cls-5" d="M799.2,1920c6.5-27.9,13-55.8,20.2-84.6,7.2-28.9,15-58.7,33.5-80.4,18.4-21.7,47.3-35.2,73.6-46.2,26.2-11.1,49.8-19.5,75-30.6,25.1-11.2,51.8-25,78.6-38.8v280.8h-280.8v-.2Z"/>
          <path class="cls-1" d="M869.4,1920c4.9-21,9.8-41.8,15.2-63.5s11.2-44,25.1-60.3c13.8-16.2,35.5-26.4,55.2-34.7,19.7-8.2,37.3-14.6,56.2-22.9,18.9-8.4,38.9-18.7,58.9-29.2v210.6h-210.6Z"/>
          <path class="cls-2" d="M939.6,1920c3.2-13.9,6.5-27.9,10.1-42.3s7.5-29.3,16.7-40.2c9.2-10.8,23.7-17.6,36.8-23.1s24.9-9.7,37.4-15.3c12.5-5.6,25.9-12.6,39.3-19.4v140.4h-140.4,0Z"/>
          <path class="cls-4" d="M1009.8,1920c1.6-7,3.2-13.9,5-21.1s3.7-14.7,8.4-20.1c4.6-5.5,11.8-8.8,18.4-11.6,6.6-2.7,12.5-4.9,18.8-7.7,6.3-2.8,12.9-6.2,19.6-9.7v70.2h-70.2Z"/>
        </g>
      </g>
    </g>
  </g>
</svg>